<svg width="72" height="44" viewBox="0 0 72 44" fill="none" xmlns="http://www.w3.org/2000/svg">
<path d="M0 0.978977V22.9451H35.9L49.9412 12.0423L36.1508 0.978977H0Z" fill="#6CB641"/>
<mask id="mask0_4_25235" style="mask-type:luminance" maskUnits="userSpaceOnUse" x="0" y="0" width="72" height="44">
<path d="M72 0.978977H0V43.021H72V0.978977Z" fill="white"/>
</mask>
<g mask="url(#mask0_4_25235)">
<path fill-rule="evenodd" clip-rule="evenodd" d="M24.5101 3.28598H29.5991L34.8775 20.3558H30.6925L29.5764 16.0176L24.4128 16.0652L23.3215 20.3558H19.4212L24.5101 3.28598ZM28.817 13.0664H25.1714L25.8076 10.5132L25.8086 10.5092C26.188 8.9865 26.5673 7.46391 26.9469 5.94132C27.2622 7.14294 27.5776 8.34456 27.8931 9.54617C28.2011 10.7196 28.5092 11.893 28.817 13.0664Z" fill="black"/>
<path d="M47.282 29.1145V32.6246H53.3982V35.7098H47.282V39.5924H54.1431V42.9428H43.3458V25.977H53.877V29.1145H47.282Z" fill="black"/>
<path d="M30.4756 25.9761H34.2518V39.7512H41.0598V42.9428H30.4756V25.9761Z" fill="black"/>
<path d="M72 34.4204C72 35.9178 71.7394 37.2104 71.2184 38.2982C70.6975 39.3851 70.01 40.2786 69.1561 40.9793C68.303 41.68 67.3393 42.1953 66.2669 42.5259C65.1944 42.8557 64.1064 43.021 63.0033 43.021H57.0209V25.9165H62.8221C63.9551 25.9165 65.0732 26.0576 66.1763 26.339C67.2786 26.6213 68.261 27.0881 69.1222 27.7405C69.9834 28.3928 70.6785 29.2669 71.2074 30.362C71.7356 31.457 72 32.8101 72 34.4204ZM67.9666 34.4204C67.9666 33.4544 67.8192 32.6528 67.5249 32.0166C67.2305 31.3804 66.8367 30.8732 66.3456 30.495C65.8546 30.116 65.2961 29.8467 64.6695 29.6854C64.0422 29.5242 63.396 29.4435 62.7316 29.4435H60.8054V39.4456H62.6406C63.3357 39.4456 64.004 39.361 64.6467 39.1916C65.2885 39.0223 65.8546 38.7449 66.3456 38.3578C66.8367 37.9716 67.2305 37.4563 67.5249 36.812C67.8192 36.1678 67.9666 35.3711 67.9666 34.4204Z" fill="black"/>
</g>
</svg>
